.
 
http://www.scenetime.com    -   SceneTime [ We been having it ] !!!


How come you press harder on a remote control when you know the battery is dead? so you better seed to get speed ;)

        Seed back for speed


...................................NFO:.................................................[img]http://img155.imageshack.us/img155/2122/burnnoticefallofsamaxeb.jpg[/img]

[color=blue][size=4][b]Burn.Notice.The.Fall.Of.Sam.Axe.2011.BDRip.XVID.AC3.HQ.Hive-CM8[/b][/size][/color]


[b]Thx Hive

CM8 Doing It Right The First Time :D

Source: Bluray

Video: 720x400 @bitrate 1800 2pass
Audio: English DTS to AC3 5.1 @448
Sample: yes included
Subs: yes english in srt /subs[/b]


[url]http://www.imdb.com/title/tt1697851/[/url]


General
Complete name                    : Burn.Notice.The.Fall.Of.Sam.Axe.2011.BDRip.XVID.AC3.HQ.Hive-CM8.avi
Format                           : AVI
Format/Info                      : Audio Video Interleave
File size                        : 1.41 GiB
Duration                         : 1h 29mn
Overall bit rate                 : 2 254 Kbps
Writing application              : Nandub v1.0rc2
Writing library                  : Nandub build 1853/release

Video
ID                               : 0
Format                           : MPEG-4 Visual
Format profile                   : Advanced Simple@L5
Format settings, BVOP            : 1
Format settings, QPel            : Yes
Format settings, GMC             : No warppoints
Format settings, Matrix          : Default (H.263)
Muxing mode                      : Packed bitstream
Codec ID                         : XVID
Codec ID/Hint                    : XviD
Duration                         : 1h 29mn
Bit rate                         : 1 797 Kbps
Width                            : 720 pixels
Height                           : 400 pixels
Display aspect ratio             : 16:9
Frame rate                       : 23.976 fps
Color space                      : YUV
Chroma subsampling               : 4:2:0
Bit depth                        : 8 bits
Scan type                        : Progressive
Compression mode                 : Lossy
Bits/(Pixel*Frame)               : 0.260
Stream size                      : 1.13 GiB (80%)
Writing library                  : XviD 1.2.1 (UTC 2008-12-04)

Audio
ID                               : 1
Format                           : AC-3
Format/Info                      : Audio Coding 3
Mode extension                   : CM (complete main)
Codec ID                         : 2000
Duration                         : 1h 29mn
Bit rate mode                    : Constant
Bit rate                         : 448 Kbps
Channel(s)                       : 6 channels
Channel positions                : Front: L C R, Side: L R, LFE
Sampling rate                    : 48.0 KHz
Bit depth                        : 16 bits
Compression mode                 : Lossy
Stream size                      : 288 MiB (20%)
Alignment                        : Split accross interleaves
Interleave, duration             : 42 ms (1.00 video frame)
Interleave, preload duration     : 500 ms



Bruce Campbell	... 	Sam Axe
Kiele Sanchez	... 	Amanda Maples
RonReaco Lee	... 	Ben Delaney
Pedro Pascal	... 	Comandante Veracruz
Ilza Rosario	... 	Beatriz
Kepa Amuchastegui	... 	Gov. Perez
Chandra West	... 	Donna Maitland


Burn Notice: The Fall of Sam Axe stars Bruce Campbell in the titular character in this origin story 
that falls into the Burn Notice universe. It explores the life of Sam Axe in 2005, 
just a couple of years prior the events of the first season of Burn Notice itself. 
The story centers around "Commander" Sam Axe, a Navy Seal officer who, after a case of indiscretion 
with a ranking officers wife, finds himself being sent to the far reaches of South America as penance 
for his sin, so to speak. Ensuing violence, hilarity and general Burn Notice-ness follows. 
Also "groovy" were the little in-jokes throughout the episode including the origin of Sam's 
oft nefarious and enigmatic alter-ego, Chuck Finley


[img]http://img685.imageshack.us/img685/8531/34660290.png[/img]
[img]http://img807.imageshack.us/img807/2797/bubu.png[/img]
[img]http://img42.imageshack.us/img42/9386/bububu.png[/img]
[img]http://img827.imageshack.us/img827/4610/bubububbubuubu.png[/img]
[img]http://img851.imageshack.us/img851/7830/bubububbuubu.png[/img]
[img]http://img718.imageshack.us/img718/7119/bubububu.png[/img]
[img]http://img41.imageshack.us/img41/6527/bububububu.png[/img]




Greetz

ViSiON,SANTi,MAGNET,THC,T0XiC,LKRG,IMAGiNE,WBZ,FLAWL3SS,NOVA
D2U,Vik,Rapeseed,SAFC,goldadvance,MEMORY100,KaN1vE,Unevano,
Pinnz,Wayne,cedrict wink,Mr Hive and all P2P groups 
Great Work Guys :D

FYS


CM8@hushmail.com